<svg width="20" height="20" viewBox="0 0 20 20" fill="none" xmlns="http://www.w3.org/2000/svg">
<path d="M6.17791 6.37012H4.59137C4.16619 6.37012 3.82214 6.71417 3.82214 7.13935C3.82214 7.56453 4.16619 7.90858 4.59137 7.90858H6.17791C6.60309 7.90858 6.94714 7.56453 6.94714 7.13935C6.94714 6.71417 6.60309 6.37012 6.17791 6.37012Z" fill="#475467"/>
<path d="M6.17791 9.23047H4.59137C4.16619 9.23047 3.82214 9.57452 3.82214 9.9997C3.82214 10.4249 4.16619 10.7689 4.59137 10.7689H6.17791C6.60309 10.7689 6.94714 10.4249 6.94714 9.9997C6.94714 9.57452 6.60309 9.23047 6.17791 9.23047Z" fill="#475467"/>
<path d="M5.92557 12.5553C5.64162 12.2706 5.12554 12.2706 4.84159 12.5553C4.53595 12.8283 4.54201 13.3725 4.84159 13.6401C5.1557 13.9558 5.64333 13.9392 5.92557 13.6401C6.25074 13.3496 6.20674 12.8065 5.92557 12.5553Z" fill="#475467"/>
<path d="M17.6683 1.32227H15.2645C14.3893 1.32227 13.6779 2.03365 13.6779 2.9088V3.25736H12.9508C12.0794 3.25736 11.3702 3.9665 11.3702 4.83789V9.23092H10.0241V5.31265C10.0241 4.19937 9.11814 3.29342 8.00485 3.29342H2.76447C1.65119 3.29342 0.745239 4.19937 0.745239 5.31265V14.6877C0.745239 15.8009 1.65119 16.7069 2.76447 16.7069H8.00485C9.11814 16.7069 10.0241 15.8009 10.0241 14.6877V10.7694H11.3702V15.1624C11.3702 16.0338 12.0794 16.7429 12.9508 16.7429H13.6779V17.0915C13.6779 17.9666 14.3893 18.678 15.2645 18.678H17.6683C18.5435 18.678 19.2549 17.9666 19.2549 17.0915V14.8559C19.2549 13.9808 18.5435 13.2694 17.6683 13.2694H15.2645C14.3893 13.2694 13.6779 13.9808 13.6779 14.8559V15.1834L12.9087 15.1624C12.913 14.1024 12.8931 19.0022 12.9508 4.79582H13.6779V5.14438C13.6779 6.01953 14.3893 6.73092 15.2645 6.73092H17.6683C18.5435 6.73092 19.2549 6.01953 19.2549 5.14438V2.9088C19.2549 2.03365 18.5435 1.32227 17.6683 1.32227ZM8.48562 14.6877C8.48562 14.9528 8.27003 15.1684 8.00485 15.1684H2.76447C2.4993 15.1684 2.2837 14.9528 2.2837 14.6877V5.31265C2.2837 5.04748 2.4993 4.83188 2.76447 4.83188H8.00485C8.27003 4.83188 8.48562 5.04748 8.48562 5.31265V14.6877ZM17.6683 14.8078L17.7164 14.8559L17.6683 17.1396L15.2164 17.0915L15.2645 14.8078H17.6683ZM17.7164 5.14438C17.7164 5.17067 17.6946 5.19246 17.6683 5.19246L15.2164 5.14438L15.2645 2.86073L17.7164 2.9088V5.14438Z" fill="#475467"/>
</svg>
