<svg width="20" height="20" viewBox="0 0 20 20" fill="none" xmlns="http://www.w3.org/2000/svg">
<g clip-path="url(#clip0_425_13711)">
<path d="M7.70828 6.66672H1.45828C0.654144 6.66672 0 6.01257 0 5.20828V1.45828C0 0.654144 0.654144 0 1.45828 0H7.70828C8.51257 0 9.16672 0.654144 9.16672 1.45828V5.20828C9.16672 6.01257 8.51257 6.66672 7.70828 6.66672ZM1.45828 1.25C1.34338 1.25 1.25 1.34338 1.25 1.45828V5.20828C1.25 5.32333 1.34338 5.41672 1.45828 5.41672H7.70828C7.82333 5.41672 7.91672 5.32333 7.91672 5.20828V1.45828C7.91672 1.34338 7.82333 1.25 7.70828 1.25H1.45828Z" fill="#475467"/>
<path d="M7.70828 19.9997H1.45828C0.654144 19.9997 0 19.3456 0 18.5414V9.79144C0 8.98715 0.654144 8.33301 1.45828 8.33301H7.70828C8.51257 8.33301 9.16672 8.98715 9.16672 9.79144V18.5414C9.16672 19.3456 8.51257 19.9997 7.70828 19.9997ZM1.45828 9.58301C1.34338 9.58301 1.25 9.67639 1.25 9.79144V18.5414C1.25 18.6563 1.34338 18.7497 1.45828 18.7497H7.70828C7.82333 18.7497 7.91672 18.6563 7.91672 18.5414V9.79144C7.91672 9.67639 7.82333 9.58301 7.70828 9.58301H1.45828Z" fill="#475467"/>
<path d="M18.5417 19.9997H12.2917C11.4874 19.9997 10.8333 19.3456 10.8333 18.5414V14.7914C10.8333 13.9872 11.4874 13.333 12.2917 13.333H18.5417C19.3458 13.333 20 13.9872 20 14.7914V18.5414C20 19.3456 19.3458 19.9997 18.5417 19.9997ZM12.2917 14.583C12.1766 14.583 12.0833 14.6764 12.0833 14.7914V18.5414C12.0833 18.6563 12.1766 18.7497 12.2917 18.7497H18.5417C18.6566 18.7497 18.75 18.6563 18.75 18.5414V14.7914C18.75 14.6764 18.6566 14.583 18.5417 14.583H12.2917Z" fill="#475467"/>
<path d="M18.5417 11.6667H12.2917C11.4874 11.6667 10.8333 11.0126 10.8333 10.2083V1.45828C10.8333 0.654144 11.4874 0 12.2917 0H18.5417C19.3458 0 20 0.654144 20 1.45828V10.2083C20 11.0126 19.3458 11.6667 18.5417 11.6667ZM12.2917 1.25C12.1766 1.25 12.0833 1.34338 12.0833 1.45828V10.2083C12.0833 10.3233 12.1766 10.4167 12.2917 10.4167H18.5417C18.6566 10.4167 18.75 10.3233 18.75 10.2083V1.45828C18.75 1.34338 18.6566 1.25 18.5417 1.25H12.2917Z" fill="#475467"/>
</g>
<defs>
<clipPath id="clip0_425_13711">
<rect width="20" height="20" fill="white"/>
</clipPath>
</defs>
</svg>
