<svg width="20" height="20" viewBox="0 0 20 20" fill="none" xmlns="http://www.w3.org/2000/svg">
<g clip-path="url(#clip0_425_5886)">
<path d="M19.9319 10.7914L18.4437 7.89525C18.3036 7.62252 17.9899 7.48726 17.6952 7.5723L9.38887 9.97252L3.18545 7.582C2.93921 7.48709 2.66011 7.55273 2.4819 7.74717L0.163354 10.2779C-0.126218 10.5939 -0.0156627 11.1208 0.375448 11.2959L2.3063 12.1601V16.8994C2.3063 17.1647 2.47344 17.4026 2.72122 17.4978L9.1278 19.9579C9.25912 20.0038 9.4028 20.0143 9.53771 19.9753L18.0458 17.5153C18.3202 17.436 18.5035 17.1849 18.5035 16.8994V12.0486C19.1446 11.8326 19.5657 11.6916 19.5657 11.6916C19.9283 11.5689 20.1076 11.1334 19.9319 10.7914ZM17.5441 8.95064L18.4511 10.7157L12.0714 12.8751L10.4854 10.9903L17.5441 8.95064ZM3.13229 8.93564L8.33827 10.9417L6.9263 12.8256L1.70917 10.4889L3.13229 8.93564ZM17.2213 16.4173L9.99887 18.5068V16.1535H8.71677V18.4264L3.58835 16.4589V12.7346L6.871 14.2053C6.95558 14.2432 7.26331 14.3804 7.64579 14.0047L9.38887 11.6786L11.3719 14.0353C11.496 14.1828 11.6754 14.2637 11.8613 14.2637C11.9048 14.2637 14.9563 13.2359 17.2213 12.4798V16.4173H17.2213Z" fill="#475467"/>
<path d="M8.7168 14.0596H9.99889V15.2134H8.7168V14.0596Z" fill="#475467"/>
<path d="M10.9476 9.14521H9.04816C8.71919 9.14521 8.44355 8.89077 8.41017 8.56359L8.3297 7.77158C8.22218 7.71731 8.11752 7.65641 8.01594 7.59184L7.26509 7.92342C6.96735 8.05521 6.61803 7.94256 6.45286 7.66201L5.50312 6.04868C5.3338 5.76115 5.41346 5.39175 5.68624 5.19949L6.34568 4.73457C6.34038 4.62286 6.34038 4.5109 6.34568 4.39919L5.68624 3.93432C5.41346 3.74205 5.33385 3.37274 5.50312 3.08521L6.45286 1.47205C6.61803 1.19145 6.96731 1.07919 7.26513 1.21103L8.01594 1.54333C8.11748 1.47876 8.22222 1.41923 8.3297 1.36496L8.41017 0.575898C8.44355 0.248718 8.71915 0 9.04816 0H10.9476C11.2766 0 11.5522 0.248718 11.5856 0.575898L11.6661 1.36504C11.7735 1.41932 11.8782 1.4788 11.9798 1.54338L12.7306 1.21107C13.0284 1.07932 13.3777 1.1915 13.5429 1.47209L14.4926 3.08526C14.6619 3.37282 14.5823 3.74209 14.3095 3.93436L13.6501 4.39923C13.6554 4.51094 13.6554 4.62291 13.6501 4.73462L14.3095 5.19949C14.5823 5.39175 14.6619 5.76107 14.4926 6.04859L13.5429 7.66175C13.3777 7.94235 13.0284 8.05453 12.7307 7.92278L11.9798 7.59047C11.8783 7.65504 11.7735 7.71457 11.6661 7.76885L11.5856 8.56363C11.5522 8.89073 11.2766 9.14521 10.9476 9.14521ZM9.62735 7.86316H10.3684L10.428 7.27291C10.4528 7.02991 10.6135 6.81927 10.8425 6.73419C11.0824 6.64504 11.305 6.51744 11.5041 6.35774C11.6909 6.20782 11.9459 6.17385 12.165 6.27085L12.7274 6.5194L13.0877 5.90718L12.6042 5.56628C12.4032 5.42462 12.301 5.18056 12.341 4.93803C12.3814 4.69308 12.3814 4.44073 12.341 4.19581C12.301 3.95329 12.4032 3.70923 12.6042 3.56756L13.0877 3.22675L12.7274 2.61466L12.165 2.86355C11.9459 2.96051 11.6909 2.92731 11.504 2.77735C11.305 2.61769 11.0824 2.4915 10.8425 2.40235C10.6135 2.31727 10.4527 2.10953 10.4279 1.86658L10.3683 1.28205H9.62731L9.56769 1.86658C9.54291 2.10957 9.38218 2.31731 9.15316 2.40244C8.91325 2.49158 8.69068 2.61774 8.49162 2.77739C8.30474 2.92739 8.04983 2.96064 7.83068 2.86359L7.26829 2.6147L6.90795 3.2268L7.39141 3.56761C7.59239 3.70927 7.69461 3.95329 7.65461 4.19586C7.61419 4.44081 7.61423 4.69312 7.65461 4.93808C7.69461 5.1806 7.59235 5.42462 7.39141 5.56628L6.90795 5.90709L7.26829 6.51915L7.83068 6.27026C8.04974 6.17338 8.3047 6.20654 8.49158 6.35645C8.69068 6.51615 8.91329 6.64235 9.15312 6.7315C9.38214 6.81658 9.54286 7.03004 9.56765 7.27304L9.62735 7.86316Z" fill="#475467"/>
<path d="M9.99787 5.55178C10.5457 5.55178 10.9899 5.10777 10.9899 4.56007C10.9899 4.01236 10.5457 3.56836 9.99787 3.56836C9.45 3.56836 9.00586 4.01236 9.00586 4.56007C9.00586 5.10777 9.45 5.55178 9.99787 5.55178Z" fill="#475467"/>
</g>
<defs>
<clipPath id="clip0_425_5886">
<rect width="20" height="20" fill="white"/>
</clipPath>
</defs>
</svg>
